<svg xmlns="http://www.w3.org/2000/svg" viewBox="0 0 64 64" id="communication">
  <path fill="#292f64" d="M56.08 51.97H52.9v-2.03c.15-.12.28-.23.43-.36v.57c0 .53.43.97.97.97h2.11a2.42 2.42 0 0 0 2.41-2.42v-9.81c0-5.92-4.78-10.72-10.66-10.72s-10.65 4.81-10.65 10.72v9.81a2.42 2.42 0 0 0 2.41 2.42h2.12c.53 0 .97-.44.97-.97v-.57c.14.12.27.23.42.34v2.05h-3.18c-4.37 0-7.93 3.58-7.93 7.97v2.46c0 .53.44.97.97.97h29.73c.53 0 .97-.44.97-.97v-2.46c.01-4.4-3.54-7.97-7.91-7.97zm-14.16-14.8c-.48.07-.83.48-.83.96v11.05h-1.15c-.26 0-.48-.22-.48-.48v-9.81c0-4.85 3.91-8.79 8.72-8.79 4.8 0 8.71 3.94 8.71 8.79v9.81c0 .26-.22.48-.48.48h-1.14v-9.6c0-.3-.15-.59-.39-.78-.25-.18-.56-.23-.86-.16-2.24.67-6.11-.71-7.93-3.55a.991.991 0 0 0-.85-.45.96.96 0 0 0-.81.49c-.8 1.43-1.22 1.86-2.51 2.04zm1.11 9.5v-7.75c1.09-.31 1.76-.87 2.31-1.6 2.17 2.42 5.44 3.61 7.99 3.41v5.92c-1.16 1.83-3.06 2.93-5.16 2.93-2.09 0-3.99-1.09-5.14-2.91zM50.96 51v1.94c-.01 2.02-2.13 2.17-2.79 2.17-.65 0-2.78-.16-2.78-2.17v-1.95c.88.34 1.82.53 2.78.53.96 0 1.91-.19 2.79-.52zm11.1 10.43H34.27v-1.49c0-3.33 2.69-6.03 5.99-6.03h3.3c.44 1.91 2.17 3.14 4.61 3.14 2.44 0 4.18-1.23 4.62-3.14h3.3c3.3 0 5.98 2.71 5.98 6.03v1.49z"></path>
  <path fill="#ebebec" d="M56.88 38.88v9.81c0 .26-.22.48-.48.48h-1.14v-9.6c0-.3-.15-.59-.39-.78-.25-.18-.56-.23-.86-.16-2.24.67-6.11-.71-7.93-3.55a.991.991 0 0 0-.85-.45.96.96 0 0 0-.81.49c-.79 1.41-1.2 1.84-2.49 2.02-.48.07-.83.48-.83.96v11.05h-1.15c-.26 0-.48-.22-.48-.48v-9.81c0-4.85 3.91-8.79 8.72-8.79 4.78.03 8.69 3.97 8.69 8.81z"></path>
  <path fill="#d4d5d4" d="M56.88 38.88v9.81c0 .26-.22.48-.48.48h-.93c.22 0 .43-.2.43-.46V39.6c0-4.52-3.47-8.17-7.73-8.17-4.27 0-7.74 3.66-7.74 8.17v9.12c0 .25.19.46.43.46h-.93c-.26 0-.48-.22-.48-.48v-9.81c0-4.85 3.91-8.79 8.72-8.79 4.8 0 8.71 3.94 8.71 8.78z"></path>
  <path fill="#4ebbe5" d="M62.06 59.94v1.49H34.27v-1.49c0-3.33 2.69-6.03 5.99-6.03h3.3c.44 1.91 2.17 3.14 4.61 3.14 2.44 0 4.18-1.23 4.62-3.14h3.3c3.28 0 5.97 2.7 5.97 6.03z"></path>
  <path fill="#38a7d7" d="M62.06 59.94v1.49H34.27v-1.49c0-3.33 2.69-6.03 5.99-6.03h3.3c.08.35.2.67.37.97h-2.72c-2.92 0-5.28 2.01-5.28 4.47v1.12h24.46v-1.12c0-2.46-2.36-4.47-5.27-4.47h-2.71c.16-.3.28-.62.36-.97h3.3c3.3 0 5.99 2.7 5.99 6.03z"></path>
  <path fill="#ffe4a9" d="M53.32 40.74v5.92c-1.16 1.83-3.06 2.93-5.16 2.93-2.08 0-3.99-1.09-5.14-2.91v-7.75c1.09-.31 1.76-.87 2.31-1.6 2.18 2.42 5.44 3.6 7.99 3.41z"></path>
  <path fill="#efd298" d="M53.32 45.32v1.33c-1.16 1.83-3.06 2.93-5.16 2.93-2.08 0-3.99-1.09-5.14-2.91v-1.33c1.15 1.82 3.05 2.91 5.14 2.91 2.1 0 4-1.09 5.16-2.93zM50.96 51v1.94c-.01 2.02-2.13 2.17-2.79 2.17-.65 0-2.78-.16-2.78-2.17v-1.95c.88.34 1.82.53 2.78.53.96 0 1.91-.19 2.79-.52z"></path>
  <path fill="#292f64" d="M20.18 50.41v-1.13c1.75.72 3.4.91 4.72.91 1.61 0 2.71-.29 2.79-.32.36-.1.63-.4.7-.77.06-.38-.1-.75-.41-.96-.03-.02-3.17-2.3-1.7-7.26 1.26-4.27-.07-8.15-1.96-10.1-1.2-1.24-2.68-1.81-4.11-1.6-3.7-2.13-7.77-1.95-10.95.51-3.49 2.69-5.05 7.39-3.82 11.42 1.37 4.5-1.85 6.94-1.98 7.04-.3.21-.46.59-.39.95.07.37.33.67.69.77.16.05 3.65 1 7.52-.59v1.13C4.79 50.87 0 55.85 0 62.4c0 .53.44.97.97.97H30.5c.53 0 .97-.46.97-1 0-6.52-4.79-11.5-11.29-11.96zM6.06 48.24c1.24-1.67 2.26-4.34 1.24-7.69-1-3.29.29-7.13 3.15-9.33 2.66-2.05 5.96-2.12 9.08-.2.22.15.49.18.75.12 1.19-.3 2.18.49 2.66.99 1.49 1.55 2.54 4.68 1.49 8.2-1.13 3.83-.05 6.43 1.02 7.91-1.07.05-2.52-.04-4.06-.58 1.16-1.73 1.88-3.98 1.88-6.45 0-2.72-.88-5.34-2.41-7.18-.2-.24-.5-.38-.82-.35-.31.03-.59.2-.76.48-1.61 2.71-3.4 2.87-5.47 3.05-1.71.16-3.65.33-5.27 2.09-.14.15-.22.33-.24.52-.07.42-.1.88-.1 1.39 0 2.47.72 4.72 1.88 6.45-1.52.52-2.95.62-4.02.58zm4.08-7.03c0-.29.01-.56.03-.8 1.08-1.02 2.35-1.12 3.8-1.26 1.88-.16 4.17-.37 6.13-2.79.79 1.38 1.22 3.08 1.22 4.86 0 4.32-2.51 7.84-5.6 7.84-3.08-.01-5.58-3.52-5.58-7.85zm8.1 9.2v.93c0 1.92-1.76 2.13-2.51 2.13-.75 0-2.5-.21-2.5-2.13v-.92c.79.36 1.63.56 2.5.56.88.01 1.72-.21 2.51-.57zM1.99 61.43c.43-4.99 4.3-8.71 9.43-9.08.43 1.86 2.05 3.06 4.32 3.06 2.27 0 3.9-1.2 4.32-3.06 5.13.37 8.99 4.08 9.43 9.08H1.99z"></path>
  <path fill="#9ec1d6" d="M25.44 48.24c-1.07.05-2.52-.04-4.06-.58 1.16-1.73 1.88-3.98 1.88-6.45 0-2.72-.88-5.34-2.41-7.18-.2-.24-.5-.38-.82-.35-.31.03-.59.2-.76.48-1.61 2.71-3.4 2.87-5.47 3.05-1.71.16-3.65.33-5.27 2.09-.14.15-.22.33-.24.52-.06.42-.09.88-.09 1.39 0 2.47.72 4.72 1.88 6.45-1.52.52-2.96.62-4.02.58 1.24-1.67 2.26-4.34 1.24-7.69-1-3.29.29-7.13 3.15-9.33 2.66-2.05 5.96-2.12 9.08-.2.22.15.49.18.75.12 1.19-.3 2.18.49 2.66.99 1.49 1.55 2.54 4.68 1.49 8.2-1.14 3.83-.05 6.43 1.01 7.91z"></path>
  <path fill="#80a4b7" d="M25.44 48.24c-1.07.05-2.52-.04-4.06-.58.15-.21.28-.44.42-.67.97.21 1.86.25 2.57.22-.6-.84-1.22-2.1-1.31-3.79.14-.71.2-1.44.2-2.21V41c.05-.27.13-.54.2-.82.93-3.13 0-5.92-1.33-7.29-.43-.44-1.3-1.14-2.37-.88-.22.07-.47.03-.66-.1-2.77-1.71-5.71-1.64-8.07.17-2.54 1.95-3.68 5.35-2.81 8.27-.01.27-.02.55-.02.86 0 .96.11 1.88.31 2.75a7.45 7.45 0 0 1-1.38 3.25c.7.02 1.57-.02 2.53-.23.13.23.27.46.42.68-1.52.52-2.96.62-4.02.58 1.24-1.67 2.26-4.34 1.24-7.69-1-3.29.29-7.13 3.15-9.33 2.66-2.05 5.96-2.12 9.08-.2.22.15.49.18.75.12 1.19-.3 2.18.49 2.66.99 1.49 1.55 2.54 4.68 1.49 8.2-1.14 3.83-.05 6.43 1.01 7.91z"></path>
  <path fill="#f16e61" d="M29.48 61.43H1.99c.43-4.99 4.3-8.71 9.43-9.08.43 1.86 2.05 3.06 4.32 3.06 2.27 0 3.9-1.2 4.32-3.06 5.12.37 8.98 4.09 9.42 9.08z"></path>
  <path fill="#e25f5a" d="M29.48 61.43H1.99c.43-4.99 4.3-8.71 9.43-9.08.08.33.19.65.34.93-4.32.38-7.54 3.32-7.9 7.24h23.77c-.37-3.93-3.59-6.87-7.9-7.24.15-.28.26-.6.34-.93 5.11.37 8.97 4.09 9.41 9.08z"></path>
  <path fill="#efd298" d="M18.24 50.41v.93c0 1.92-1.76 2.13-2.51 2.13-.75 0-2.5-.21-2.5-2.13v-.92c.79.36 1.63.56 2.5.56.88.01 1.72-.21 2.51-.57z"></path>
  <path fill="#ffe4a9" d="M21.32 41.21c0 4.32-2.51 7.84-5.6 7.84-3.08 0-5.59-3.51-5.59-7.84 0-.29.01-.56.03-.8 1.08-1.02 2.35-1.12 3.8-1.26 1.88-.16 4.17-.37 6.13-2.79.8 1.37 1.23 3.08 1.23 4.85z"></path>
  <path fill="#efd298" d="M20.1 36.35c-1.96 2.42-4.25 2.63-6.13 2.79-1.45.14-2.72.24-3.8 1.26-.02.24-.03.51-.03.8 0 4.32 2.5 7.84 5.59 7.84 3.08 0 5.6-3.51 5.6-7.84-.01-1.76-.44-3.47-1.23-4.85zm-4.37 11.8c-2.51 0-4.55-2.82-4.55-6.31 0-.23.01-.46.03-.65.87-.82 1.91-.9 3.09-1.02 1.53-.13 3.77-.29 5.36-2.25.64 1.12.62 2.49.62 3.92.01 3.48-2.04 6.31-4.55 6.31z"></path>
  <path fill="#292f64" d="M31.64 7.63a2.744 2.744 0 0 0 0 5.49c1.51 0 2.74-1.23 2.74-2.74a2.74 2.74 0 0 0-2.74-2.75zm0 3.56a.805.805 0 0 1 0-1.61c.45 0 .8.37.8.81.01.43-.35.8-.8.8zm6.71-3.56a2.744 2.744 0 0 0 0 5.49c1.51 0 2.74-1.23 2.74-2.74a2.74 2.74 0 0 0-2.74-2.75zm0 3.56a.805.805 0 0 1 0-1.61c.45 0 .8.37.8.81.01.43-.35.8-.8.8zm6.71-3.56a2.744 2.744 0 0 0 0 5.49c1.51 0 2.74-1.23 2.74-2.74a2.74 2.74 0 0 0-2.74-2.75zm0 3.56a.805.805 0 0 1 0-1.61c.45 0 .8.37.8.81.01.43-.35.8-.8.8z"></path>
  <path fill="#292f64" d="M38.35.63c-4.43 0-8.38 1.46-10.92 3.74-.64-.06-1.26-.09-1.84-.09-7.66 0-13.89 4.37-13.89 9.75 0 2.05.92 4.06 2.62 5.71l.06 5.37a.96.96 0 0 0 .97.96c.2 0 .41-.06.57-.18l4-2.96c1.79.56 3.74.85 5.67.85 4.3 0 8.33-1.4 10.95-3.74.59.05 1.19.09 1.81.09 2 0 3.93-.29 5.74-.87l4.01 2.3c.16.09.32.13.48.13s.33-.04.48-.13c.3-.17.48-.48.48-.83l.06-4.63c1.72-1.67 2.63-3.64 2.63-5.71C52.25 5 46.01.63 38.35.63zM25.59 21.85c-1.89 0-3.8-.31-5.53-.9a.92.92 0 0 0-.89.14L16.3 23.2l-.04-3.88c-.01-.27-.13-.53-.32-.72-1.5-1.35-2.3-2.93-2.3-4.57 0-4.31 5.35-7.81 11.95-7.81h.21c-.85 1.26-1.35 2.67-1.35 4.16 0 4.29 3.97 7.92 9.45 9.23-2.21 1.42-5.17 2.24-8.31 2.24zM48 14.94c-.19.18-.31.45-.32.72l-.04 3.39-2.96-1.69a.95.95 0 0 0-.48-.14c-.11 0-.21.02-.32.06-1.74.6-3.59.9-5.53.9-6.59 0-11.96-3.5-11.96-7.81 0-1.57.72-3.04 1.94-4.26.02-.02.03-.04.05-.05 2.14-2.11 5.81-3.51 9.97-3.51 6.59 0 11.96 3.5 11.96 7.82 0 1.64-.8 3.23-2.31 4.57z"></path>
  <path fill="#eac05c" d="M33.91 19.62c-2.22 1.42-5.18 2.23-8.32 2.23-1.89 0-3.8-.31-5.53-.9a.92.92 0 0 0-.89.14L16.3 23.2l-.04-3.88c-.01-.27-.13-.53-.32-.72-1.5-1.35-2.3-2.93-2.3-4.57 0-4.31 5.35-7.81 11.95-7.81h.21c-.45.65-.79 1.35-1.01 2.07-.22.67-.34 1.38-.34 2.09 0 3.56 2.72 6.66 6.79 8.36.84.36 1.73.65 2.67.88z"></path>
  <path fill="#ffdb7c" d="M38.35 2.57c-4.16 0-7.83 1.4-9.97 3.51-.02.01-.03.03-.05.05-1.22 1.22-1.94 2.69-1.94 4.26 0 4.31 5.36 7.81 11.96 7.81 1.94 0 3.79-.3 5.53-.9.11-.04.21-.06.32-.06.16 0 .34.05.48.14l2.96 1.69.04-3.39c.01-.27.13-.53.32-.72 1.51-1.35 2.31-2.93 2.31-4.56 0-4.33-5.36-7.83-11.96-7.83zm-6.71 10.56a2.744 2.744 0 0 1 0-5.49c1.51 0 2.74 1.23 2.74 2.75.01 1.51-1.23 2.74-2.74 2.74zm6.71 0a2.744 2.744 0 0 1 0-5.49c1.51 0 2.74 1.23 2.74 2.75.01 1.51-1.23 2.74-2.74 2.74zm6.71 0a2.744 2.744 0 0 1 0-5.49c1.51 0 2.74 1.23 2.74 2.75.01 1.51-1.23 2.74-2.74 2.74z"></path>
  <path fill="#eac05c" d="M38.35 2.57c-4.16 0-7.83 1.4-9.97 3.51-.02.01-.03.03-.05.05-1.22 1.22-1.94 2.69-1.94 4.26 0 4.31 5.36 7.81 11.96 7.81 1.94 0 3.79-.3 5.53-.9.11-.04.21-.06.32-.06.16 0 .34.05.48.14l2.96 1.69.04-3.39c.01-.27.13-.53.32-.72 1.51-1.35 2.31-2.93 2.31-4.56 0-4.33-5.36-7.83-11.96-7.83zm8.49 11.07a2.85 2.85 0 0 0-.9 1.96v.47l-.39-.21c-.39-.23-.86-.37-1.35-.37-.31 0-.62.06-.92.16-1.51.52-3.18.8-4.93.8-5.54 0-10.21-2.77-10.21-6.06 0-1.32.78-2.38 1.43-3.03l.05-.04c1.9-1.88 5.17-3.01 8.74-3.01 5.54 0 10.21 2.78 10.21 6.07-.01 1.42-.95 2.56-1.73 3.26z"></path>
  <path fill="#ebebec" d="M32.45 10.39c0 .44-.36.8-.8.8a.805.805 0 0 1 0-1.61c.44-.01.8.36.8.81zm6.71 0c0 .44-.36.8-.8.8a.805.805 0 0 1 0-1.61c.44-.01.8.36.8.81zm6.71 0c0 .44-.36.8-.8.8a.805.805 0 0 1 0-1.61c.44-.01.8.36.8.81z"></path>
  <path fill="#e3b346" d="M33.91 19.62c-2.22 1.42-5.18 2.23-8.32 2.23-1.89 0-3.8-.31-5.53-.9a.92.92 0 0 0-.89.14L16.3 23.2l-.04-3.88c-.01-.27-.13-.53-.32-.72-1.5-1.35-2.3-2.93-2.3-4.57 0-4.31 5.35-7.81 11.95-7.81h.21c-.45.65-.79 1.35-1.01 2.07-5.03.24-9.12 2.81-9.12 5.75 0 1.3.88 2.38 1.63 3.04.61.57.96 1.34 1 2.14.43-.24.94-.38 1.44-.38.34 0 .68.06 1.02.18 1.49.51 3.11.78 4.83.78 2.02 0 3.97-.37 5.64-1.07.85.37 1.74.66 2.68.89z"></path>
</svg>
